<?xml version="1.0" encoding="UTF-8"?>
<svg version="1.1" xmlns="http://www.w3.org/2000/svg" width="64" height="64">
<path d="M0 0 C1.02090729 0.00007553 2.04181458 0.00015106 3.09365845 0.00022888 C4.75151871 0.00797081 4.75151871 0.00797081 6.44287109 0.01586914 C7.57203949 0.01728409 8.70120789 0.01869904 9.86459351 0.02015686 C13.48185848 0.02576796 17.09906223 0.03832237 20.71630859 0.05102539 C23.16422437 0.05603896 25.61214111 0.06060211 28.06005859 0.06469727 C34.07049625 0.07574099 40.08089805 0.09248996 46.09130859 0.11352539 C46.09130859 1.43352539 46.09130859 2.75352539 46.09130859 4.11352539 C43.78130859 4.44352539 41.47130859 4.77352539 39.09130859 5.11352539 C38.04916168 9.72860313 38.04916168 9.72860313 39.09130859 14.11352539 C41.41287456 14.52081767 43.74818729 14.85791216 46.09130859 15.11352539 C46.09130859 16.43352539 46.09130859 17.75352539 46.09130859 19.11352539 C43.12130859 19.60852539 43.12130859 19.60852539 40.09130859 20.11352539 C40.09130859 21.43352539 40.09130859 22.75352539 40.09130859 24.11352539 C43.72130859 24.44352539 47.35130859 24.77352539 51.09130859 25.11352539 C51.09130859 26.43352539 51.09130859 27.75352539 51.09130859 29.11352539 C48.78130859 29.44352539 46.47130859 29.77352539 44.09130859 30.11352539 C43.04916168 34.72860313 43.04916168 34.72860313 44.09130859 39.11352539 C46.41287456 39.52081767 48.74818729 39.85791216 51.09130859 40.11352539 C51.09130859 41.43352539 51.09130859 42.75352539 51.09130859 44.11352539 C43.615513 44.20632902 36.13984223 44.2773424 28.66358662 44.32077408 C25.19177675 44.34162251 21.72036186 44.36988834 18.2487793 44.4152832 C14.2548449 44.46717978 10.26132344 44.48649313 6.26708984 44.50415039 C4.40278069 44.5351181 4.40278069 44.5351181 2.50080872 44.56671143 C1.33998276 44.56701355 0.1791568 44.56731567 -1.0168457 44.56762695 C-2.54573677 44.58095062 -2.54573677 44.58095062 -4.10551453 44.59454346 C-7.66010975 43.9845839 -9.32811962 42.57926592 -11.90869141 40.11352539 C-13.45893605 37.01303611 -13.19861156 34.53458321 -12.90869141 31.11352539 C-11.11306736 28.36023518 -9.85614219 26.58725078 -6.90869141 25.11352539 C-5.79826728 22.37895841 -5.79826728 22.37895841 -5.90869141 19.11352539 C-7.57116155 17.11003573 -9.23802008 15.11018137 -10.90869141 13.11352539 C-11.59229026 8.78406597 -11.43661971 6.92301545 -9.03369141 3.23852539 C-5.92226061 0.1270946 -4.27983999 -0.01054148 0 0 Z " fill="#4C535B" transform="translate(12.90869140625,19.886474609375)"/>
<path d="M0 0 C13.53 0 27.06 0 41 0 C41 1.65 41 3.3 41 5 C46.445 5.495 46.445 5.495 52 6 C52 7.32 52 8.64 52 10 C49.69 10.33 47.38 10.66 45 11 C44.13483472 15.49885947 43.69096728 18.01647791 46 22 C38.9525442 22.07602812 31.90519406 22.12859061 24.85742188 22.16479492 C22.45959521 22.17988682 20.06179617 22.2003625 17.6640625 22.22631836 C14.21868067 22.26268311 10.77366363 22.27972248 7.328125 22.29296875 C6.25508118 22.30845261 5.18203735 22.32393646 4.07647705 22.33988953 C3.07574158 22.34011612 2.0750061 22.34034271 1.04394531 22.34057617 C0.16458313 22.34723801 -0.71477905 22.35389984 -1.62078857 22.36076355 C-4.54660963 21.91711673 -5.90502693 21.07233931 -8 19 C-8.5 15.5 -8.5 15.5 -8 12 C-5.83490285 9.82459583 -4.49055776 9.06512448 -1.43457031 8.65942383 C-0.02062988 8.6829895 -0.02062988 8.6829895 1.421875 8.70703125 C2.95908203 8.7215332 2.95908203 8.7215332 4.52734375 8.73632812 C6.12255859 8.7740332 6.12255859 8.7740332 7.75 8.8125 C9.36841797 8.83280273 9.36841797 8.83280273 11.01953125 8.85351562 C13.6801942 8.88883416 16.33984296 8.93815801 19 9 C18.67 8.34 18.34 7.68 18 7 C15.67843403 6.59270772 13.3431213 6.25561323 11 6 C10.67 5.01 10.34 4.02 10 3 C6.37 3 2.74 3 -1 3 C-0.67 2.01 -0.34 1.02 0 0 Z " fill="#FDFBFC" transform="translate(12,39)"/>
<path d="M0 0 C1.16582108 0.00666183 1.16582108 0.00666183 2.35519409 0.01345825 C3.23595612 0.01360931 4.11671814 0.01376038 5.02416992 0.01391602 C6.4523555 0.02939987 6.4523555 0.02939987 7.90939331 0.04519653 C9.37008743 0.04944138 9.37008743 0.04944138 10.86029053 0.05377197 C13.9783443 0.0649899 17.09611349 0.09009734 20.21408081 0.11550903 C22.32475375 0.12553675 24.43543119 0.13466296 26.54611206 0.14285278 C31.72719916 0.16493445 36.90811966 0.19842774 42.08908081 0.24050903 C41.76355998 2.19363403 41.43803914 4.14675903 41.11251831 6.09988403 C41.08455211 8.65413039 41.80515415 10.06469438 43.08908081 12.24050903 C37.03848961 12.31467708 30.98816316 12.36911991 24.93722534 12.40530396 C22.87891022 12.42038853 20.82062723 12.44085891 18.76242065 12.46682739 C15.80351837 12.50322489 12.84504114 12.5202387 9.88595581 12.53347778 C8.50606476 12.55670357 8.50606476 12.55670357 7.09829712 12.58039856 C0.77154793 12.58206439 0.77154793 12.58206439 -2.49978638 10.94485474 C-3.91091919 9.24050903 -3.91091919 9.24050903 -4.28591919 5.67800903 C-3.71754272 0.46789137 -3.71754272 0.46789137 0 0 Z " fill="#FEFEFE" transform="translate(9.910919189453125,23.759490966796875)"/>
<path d="M0 0 C1.46953125 0.01450195 1.46953125 0.01450195 2.96875 0.02929688 C4.49242187 0.06700195 4.49242187 0.06700195 6.046875 0.10546875 C7.59375 0.12577148 7.59375 0.12577148 9.171875 0.14648438 C11.71407292 0.18179268 14.25520723 0.23110839 16.796875 0.29296875 C16.796875 0.62296875 16.796875 0.95296875 16.796875 1.29296875 C10.361875 1.78796875 10.361875 1.78796875 3.796875 2.29296875 C2.75472809 6.90804649 2.75472809 6.90804649 3.796875 11.29296875 C24.091875 11.78796875 24.091875 11.78796875 44.796875 12.29296875 C44.796875 12.62296875 44.796875 12.95296875 44.796875 13.29296875 C37.7494192 13.36899687 30.70206906 13.42155936 23.65429688 13.45776367 C21.25647021 13.47285557 18.85867117 13.49333125 16.4609375 13.51928711 C13.01555567 13.55565186 9.57053863 13.57269123 6.125 13.5859375 C5.05195618 13.60142136 3.97891235 13.61690521 2.87335205 13.63285828 C1.87261658 13.63308487 0.8718811 13.63331146 -0.15917969 13.63354492 C-1.03854187 13.64020676 -1.91790405 13.64686859 -2.82391357 13.6537323 C-5.74973463 13.21008548 -7.10815193 12.36530806 -9.203125 10.29296875 C-9.703125 6.79296875 -9.703125 6.79296875 -9.203125 3.29296875 C-6.2541377 0.35368762 -4.08593558 -0.07126632 0 0 Z " fill="#9FE3C3" transform="translate(13.203125,47.70703125)"/>
<path d="M0 0 C0.99773438 0.02320312 1.99546875 0.04640625 3.0234375 0.0703125 C4.52777344 0.09738281 4.52777344 0.09738281 6.0625 0.125 C6.83335938 0.14820312 7.60421875 0.17140625 8.3984375 0.1953125 C8.10546875 2.21354167 7.8125 4.23177083 7.51953125 6.25 C7.2300078 8.27671917 7.2300078 8.27671917 8.3984375 10.1953125 C19.6184375 10.5253125 30.8384375 10.8553125 42.3984375 11.1953125 C42.3984375 11.5253125 42.3984375 11.8553125 42.3984375 12.1953125 C36.3478463 12.26948055 30.29751985 12.32392337 24.24658203 12.36010742 C22.18826691 12.375192 20.12998392 12.39566237 18.07177734 12.42163086 C15.11287506 12.45802835 12.15439783 12.47504216 9.1953125 12.48828125 C7.81542145 12.51150703 7.81542145 12.51150703 6.40765381 12.53520203 C0.08090462 12.53686786 0.08090462 12.53686786 -3.19042969 10.8996582 C-4.6015625 9.1953125 -4.6015625 9.1953125 -4.9765625 5.6328125 C-4.53550461 1.58978186 -4.17717171 0.31360148 0 0 Z " fill="#E4D499" transform="translate(10.6015625,23.8046875)"/>
<path d="M0 0 C3.46679688 0.04882812 3.46679688 0.04882812 6.93359375 0.09765625 C6.93359375 4.05765625 6.93359375 8.01765625 6.93359375 12.09765625 C5.28359375 11.76765625 3.63359375 11.43765625 1.93359375 11.09765625 C-0.7914359 11.4748764 -0.7914359 11.4748764 -3.06640625 12.09765625 C-3.09327904 10.28523573 -3.1127434 8.47270392 -3.12890625 6.66015625 C-3.14050781 5.65082031 -3.15210938 4.64148437 -3.1640625 3.6015625 C-3.02917925 0.14315592 -3.02917925 0.14315592 0 0 Z " fill="#FF5E7D" transform="translate(37.06640625,41.90234375)"/>
<path d="M0 0 C1.81242052 -0.02687279 3.62495233 -0.04633715 5.4375 -0.0625 C6.44683594 -0.07410156 7.45617187 -0.08570313 8.49609375 -0.09765625 C11 0 11 0 12 1 C15.02807044 1.1603556 18.03585454 1.25960448 21.06640625 1.31640625 C21.97502914 1.33718735 22.88365204 1.35796844 23.81980896 1.37937927 C26.73395946 1.44497672 29.64820304 1.5038068 32.5625 1.5625 C34.53321291 1.60567554 36.50391626 1.64928951 38.47460938 1.69335938 C43.31630988 1.80066843 48.15810437 1.90190675 53 2 C53 2.33 53 2.66 53 3 C45.93423331 3.07595253 38.86857156 3.12855861 31.80249023 3.16479492 C29.39782782 3.17989816 26.99319302 3.20038208 24.58862305 3.22631836 C21.13583569 3.26263351 17.68341196 3.279711 14.23046875 3.29296875 C12.61316109 3.31619453 12.61316109 3.31619453 10.96318054 3.33988953 C9.96236954 3.34011612 8.96155853 3.34034271 7.93041992 3.34057617 C7.04883713 3.34723801 6.16725433 3.35389984 5.25895691 3.36076355 C2.55853368 2.92949624 1.68834041 2.09470587 0 0 Z " fill="#A6AAAE" transform="translate(5,58)"/>
<path d="M0 0 C0.97582031 0.00902344 1.95164062 0.01804688 2.95703125 0.02734375 C3.69308594 0.03894531 4.42914063 0.05054688 5.1875 0.0625 C5.1875 1.3825 5.1875 2.7025 5.1875 4.0625 C-0.0925 4.0625 -5.3725 4.0625 -10.8125 4.0625 C-10.8125 3.0725 -10.8125 2.0825 -10.8125 1.0625 C-7.13862505 0.20951624 -3.7677607 -0.04539471 0 0 Z " fill="#555B63" transform="translate(58.8125,44.9375)"/>
<path d="M0 0 C1.97986082 0.11347619 3.95891598 0.2410935 5.9375 0.375 C7.03964844 0.44460937 8.14179688 0.51421875 9.27734375 0.5859375 C10.62505859 0.79089844 10.62505859 0.79089844 12 1 C12.33 1.66 12.66 2.32 13 3 C15.32156597 3.40729228 17.6568787 3.74438677 20 4 C20 4.33 20 4.66 20 5 C17.22858283 5.08089542 14.45952181 5.14044062 11.6875 5.1875 C10.90181641 5.21263672 10.11613281 5.23777344 9.30664062 5.26367188 C8.54931641 5.27333984 7.79199219 5.28300781 7.01171875 5.29296875 C6.31522217 5.3086792 5.61872559 5.32438965 4.90112305 5.34057617 C2.41762422 4.89567045 1.52898008 3.96642914 0 2 C0 1.34 0 0.68 0 0 Z " fill="#6187AB" transform="translate(10,41)"/>
<path d="M0 0 C3.63 0 7.26 0 11 0 C10.67 0.99 10.34 1.98 10 3 C6.37 3 2.74 3 -1 3 C-0.67 2.01 -0.34 1.02 0 0 Z " fill="#C0E6FE" transform="translate(12,39)"/>
<path d="M0 0 C1.79093191 -0.08086147 3.58289628 -0.13912702 5.375 -0.1875 C6.87160156 -0.23970703 6.87160156 -0.23970703 8.3984375 -0.29296875 C9.25695313 -0.19628906 10.11546875 -0.09960938 11 0 C11.66 0.99 12.32 1.98 13 3 C11.39667209 3.08121924 9.79215974 3.13929134 8.1875 3.1875 C7.29417969 3.22230469 6.40085937 3.25710937 5.48046875 3.29296875 C2.58352485 2.95081002 1.77444972 2.24606427 0 0 Z " fill="#2DAA8D" transform="translate(5,58)"/>
</svg>
