<?xml version="1.0" encoding="UTF-8"?>
<svg version="1.1" xmlns="http://www.w3.org/2000/svg" width="16" height="16">
<path d="M0 0 C1.93166016 0.01740234 1.93166016 0.01740234 3.90234375 0.03515625 C5.19269531 0.04417969 6.48304687 0.05320312 7.8125 0.0625 C8.81152344 0.07410156 9.81054688 0.08570313 10.83984375 0.09765625 C9.84984375 0.59265625 9.84984375 0.59265625 8.83984375 1.09765625 C8.83984375 1.75765625 8.83984375 2.41765625 8.83984375 3.09765625 C9.49984375 3.09765625 10.15984375 3.09765625 10.83984375 3.09765625 C11.43717194 5.86029914 11.83984375 8.25798394 11.83984375 11.09765625 C6.55984375 11.09765625 1.27984375 11.09765625 -4.16015625 11.09765625 C-4.2578125 3.3828125 -4.2578125 3.3828125 -4.16015625 1.09765625 C-3.16015625 0.09765625 -3.16015625 0.09765625 0 0 Z " fill="#5E696D" transform="translate(4.16015625,4.90234375)"/>
<path d="M0 0 C1.60407328 -0.02708567 3.2082785 -0.04643483 4.8125 -0.0625 C5.70582031 -0.07410156 6.59914063 -0.08570313 7.51953125 -0.09765625 C10 0 10 0 13 1 C12.67 2.32 12.34 3.64 12 5 C7.38 5 2.76 5 -2 5 C-1.34 3.35 -0.68 1.7 0 0 Z " fill="#DCF3EA" transform="translate(3,10)"/>
<path d="M0 0 C3.63 0 7.26 0 11 0 C11 0.99 11 1.98 11 3 C7.37 3 3.74 3 0 3 C0 2.01 0 1.02 0 0 Z " fill="#F5F0DF" transform="translate(2,6)"/>
<path d="M0 0 C1.60407328 -0.02708567 3.2082785 -0.04643483 4.8125 -0.0625 C5.70582031 -0.07410156 6.59914063 -0.08570313 7.51953125 -0.09765625 C10 0 10 0 13 1 C13 1.66 13 2.32 13 3 C10.36 3.33 7.72 3.66 5 4 C4.67 3.34 4.34 2.68 4 2 C1.98330173 0.86649466 1.98330173 0.86649466 0 0 Z " fill="#D2AFBC" transform="translate(3,10)"/>
</svg>
